<svg xmlns="http://www.w3.org/2000/svg" data-name="Layer 1" viewBox="0 0 512 512"><g data-name="&lt;Group&gt;"><path fill="#ed664c" d="M380.22,348.23l.09-.09V131.95H335.56V102.13a79.229,79.229,0,0,0-1.52-15.46h60.97a40,40,0,0,1,40,40V449.43a40,40,0,0,1-40,40H116.99a40,40,0,0,1-40-40V126.67a40,40,0,0,1,40-40h60.45l.5.1a78.9,78.9,0,0,0-1.5,15.36v29.82H136.66V434.73H294.78l1-1.01Z"/><path fill="#fdc75b" d="M380.31,131.95V348.14l-.09.09H305.78a10,10,0,0,0-10,10v75.49l-1,1.01H136.66V131.95h39.78v9.89H335.56v-9.89Z"/><path fill="#ed664c" d="M380.22 348.23l-84.44 85.49V358.23a10 10 0 0 1 10-10zM335.56 131.95v9.89H176.44V102.13a79.56 79.56 0 0 1 159.12 0v29.82z"/><path d="M395.01,76.67H341.853a89.556,89.556,0,0,0-171.723,0H116.99a50.057,50.057,0,0,0-50,50V449.43a50.057,50.057,0,0,0,50,50H395.01a50.057,50.057,0,0,0,50-50V126.67A50.057,50.057,0,0,0,395.01,76.67Zm-59.45,75.17a10,10,0,0,0,10-9.89H370.31V338.23H305.78a20.023,20.023,0,0,0-20,20v66.5H146.66V141.95h19.786a10,10,0,0,0,10,9.89Zm20.727,206.39L305.78,409.365V358.23ZM186.44,102.13a69.56,69.56,0,0,1,139.119,0v29.71H186.44Zm238.57,347.3a30.034,30.034,0,0,1-30,30H116.99a30.034,30.034,0,0,1-30-30V126.67a30.034,30.034,0,0,1,30-30h49.637c-.111,1.817-.187,3.637-.187,5.46v19.82H136.66a10,10,0,0,0-10,10V434.73a10,10,0,0,0,10,10H294.78a10,10,0,0,0,7.105-2.963L387.29,355.3l.09-.09a10,10,0,0,0,2.929-7.071V131.95a10,10,0,0,0-10-10h-34.75V102.13c0-1.821-.076-3.641-.188-5.46h49.638a30.034,30.034,0,0,1,30,30V449.43Z"/></g></svg>