<svg id="SvgjsSvg1054" width="288" height="288" xmlns="http://www.w3.org/2000/svg" version="1.1" xmlns:xlink="http://www.w3.org/1999/xlink" xmlns:svgjs="http://svgjs.com/svgjs"><defs id="SvgjsDefs1055"></defs><g id="SvgjsG1056" transform="matrix(0.9167,0,0,0.9167,11.995200000000011,11.995200000000011)"><svg xmlns="http://www.w3.org/2000/svg" data-name="Layer 1" viewBox="0 0 32 32" width="288" height="288"><defs><pattern id="a" width="26.2" height="183.8" data-name="Unnamed Pattern" patternTransform="matrix(1 0 0 -1 53.8 416.2)" patternUnits="userSpaceOnUse" viewBox="0 0 26.2 183.8"><rect width="26.2" height="183.8" fill="none"></rect><rect width="26.2" height="183.8" fill="none"></rect><rect width="26.2" height="40" y="71.8" fill="#fcd302" class="colorfcd302 svgShape"></rect><rect width="26.2" height="19.9" y="39.7" fill="#fabe13" class="colorfabe13 svgShape"></rect><rect width="26.2" height="19.9" y="19.8" fill="#e9b120" class="colore9b120 svgShape"></rect><rect width="26.2" height="19.9" fill="#d6a428" class="colord6a428 svgShape"></rect><rect width="26.2" height="19.9" y="124" fill="#fcdd47" class="colorfcdd47 svgShape"></rect><rect width="26.2" height="19.9" y="144" fill="#fcea95" class="colorfcea95 svgShape"></rect><rect width="26.2" height="19.9" y="163.9" fill="#fff3c9" class="colorfff3c9 svgShape"></rect></pattern></defs><rect width="29" height="31" x="1.5" y=".5" fill="#c75f4a" rx="1" class="colorb18866 svgShape"></rect><path fill="#dd593c" d="M2.5.5h27a1,1,0,0,1,1,1v6a0,0,0,0,1,0,0H1.5a0,0,0,0,1,0,0v-6A1,1,0,0,1,2.5.5Z" class="color8a6847 svgShape"></path><rect width="25" height="20" x="3.5" y="9.5" fill="#dfdfe1" rx="1" class="colordfdfe1 svgShape"></rect><path fill="url(#a)" d="M17.85,27.28H14.13a2,2,0,0,1-2-1.61l-.56-2.79a.5.5,0,0,1,.49-.6h7.78a.5.5,0,0,1,.49.6l-.56,2.79A2,2,0,0,1,17.85,27.28Z"></path><circle cx="7" cy="4" r="1.5" fill="#d8d7d9" class="colord8d7d9 svgShape"></circle><circle cx="13" cy="4" r="1.5" fill="#d8d7d9" class="colord8d7d9 svgShape"></circle><circle cx="19" cy="4" r="1.5" fill="#d8d7d9" class="colord8d7d9 svgShape"></circle><circle cx="25" cy="4" r="1.5" fill="#d8d7d9" class="colord8d7d9 svgShape"></circle><path d="M18.82,16.7a.49.49,0,0,0-.07.7.67.67,0,0,1,.05.9,2.56,2.56,0,0,0-.29.83,2.4,2.4,0,0,0,.16,1.25.51.51,0,0,0,.47.31.57.57,0,0,0,.18,0A.5.5,0,0,0,19.6,20a1.39,1.39,0,0,1-.1-.73,1.55,1.55,0,0,1,.19-.52,1.79,1.79,0,0,0,.26-.92,1.7,1.7,0,0,0-.43-1.07A.5.5,0,0,0,18.82,16.7Zm-6,0a.49.49,0,0,0-.07.7.67.67,0,0,1,.05.9,2.56,2.56,0,0,0-.29.83,2.4,2.4,0,0,0,.16,1.25.51.51,0,0,0,.47.31.57.57,0,0,0,.18,0A.5.5,0,0,0,13.6,20a1.39,1.39,0,0,1-.1-.73,1.55,1.55,0,0,1,.19-.52,1.79,1.79,0,0,0,.26-.92,1.7,1.7,0,0,0-.43-1.07A.5.5,0,0,0,12.82,16.7ZM11.5,13h9a.5.5,0,0,0,0-1h-9a.5.5,0,0,0,0,1Zm4.32,3.7a.49.49,0,0,0-.07.7.67.67,0,0,1,.05.9,2.56,2.56,0,0,0-.29.83,2.4,2.4,0,0,0,.16,1.25.51.51,0,0,0,.47.31.57.57,0,0,0,.18,0A.5.5,0,0,0,16.6,20a1.39,1.39,0,0,1-.1-.73,1.55,1.55,0,0,1,.19-.52,1.79,1.79,0,0,0,.26-.92,1.7,1.7,0,0,0-.43-1.07A.5.5,0,0,0,15.82,16.7ZM4.5,30h23A1.5,1.5,0,0,0,29,28.5V9.5a.5.5,0,0,0-.5-.5H3.5a.5.5,0,0,0-.5.5v19A1.5,1.5,0,0,0,4.5,30ZM4,10H28V27H19.66a2.47,2.47,0,0,0,.64-1.23L21,22.38a.53.53,0,0,0-.1-.42.53.53,0,0,0-.39-.18h-9a.51.51,0,0,0-.49.6l.68,3.39A2.49,2.49,0,0,0,12.33,27H4ZM19.32,25.58a1.5,1.5,0,0,1-1.47,1.2H14.13a1.51,1.51,0,0,1-1.47-1.2l-.56-2.8h7.78ZM4,28H28v.5a.5.5,0,0,1-.5.5H4.5a.5.5,0,0,1-.5-.5ZM19,2a2,2,0,1,0,2,2A2,2,0,0,0,19,2Zm0,3a1,1,0,1,1,1-1A1,1,0,0,1,19,5ZM7,2A2,2,0,1,0,9,4,2,2,0,0,0,7,2ZM7,5A1,1,0,1,1,8,4,1,1,0,0,1,7,5ZM29.5,0H2.5A1.5,1.5,0,0,0,1,1.5v29A1.5,1.5,0,0,0,2.5,32h27A1.5,1.5,0,0,0,31,30.5V1.5A1.5,1.5,0,0,0,29.5,0ZM30,30.5a.5.5,0,0,1-.5.5H2.5a.5.5,0,0,1-.5-.5V8H30ZM30,7H2V1.5A.5.5,0,0,1,2.5,1h27a.5.5,0,0,1,.5.5ZM25,2a2,2,0,1,0,2,2A2,2,0,0,0,25,2Zm0,3a1,1,0,1,1,1-1A1,1,0,0,1,25,5ZM13,2a2,2,0,1,0,2,2A2,2,0,0,0,13,2Zm0,3a1,1,0,1,1,1-1A1,1,0,0,1,13,5Z" fill="#000000" class="color000 svgShape"></path></svg></g></svg>